<?xml version="1.0" encoding="UTF-8"?>
<!DOCTYPE svg PUBLIC "-//W3C//DTD SVG 1.1//EN" "http://www.w3.org/Graphics/SVG/1.1/DTD/svg11.dtd">
<!-- Creator: CorelDRAW X7 -->
<svg xmlns="http://www.w3.org/2000/svg" xml:space="preserve" width="500px" height="500px" version="1.1" style="shape-rendering:geometricPrecision; text-rendering:geometricPrecision; image-rendering:optimizeQuality; fill-rule:evenodd; clip-rule:evenodd"
viewBox="0 0 500000 500000"
 xmlns:xlink="http://www.w3.org/1999/xlink">
 <defs>
  <style type="text/css">
   <![CDATA[
    .fil1 {fill:none}
    .fil0 {fill:white}
   ]]>
  </style>
   <clipPath id="id0">
    <path d="M0 -1l500001 0 0 500001 -500001 0 0 -500001z"/>
   </clipPath>
 </defs>
 <g id="Layer_x0020_1">
  <metadata id="CorelCorpID_0Corel-Layer"/>
  <g>
  </g>
  <g style="clip-path:url(#id0)">
   <g>
    <path class="fil0" d="M210512 179761l20581 -39611c706,-1358 2018,-2155 3549,-2155l13860 0c1454,0 2703,712 3443,1964 740,1250 762,2688 62,3962l-31411 57120 0 33479c0,2203 -1796,4000 -3999,4000l-12189 0c-2203,0 -3999,-1797 -3999,-4000l0 -33479 -31410 -57120c-701,-1274 -678,-2712 61,-3962 741,-1252 1989,-1964 3443,-1964l13989 0c1534,0 2849,800 3553,2162l20467 39604zm92235 34553l-33170 0 -7746 21559c-582,1618 -2046,2647 -3764,2647l-12580 0c-1357,0 -2524,-613 -3294,-1732 -769,-1117 -926,-2427 -442,-3694l35333 -92527c603,-1580 2044,-2572 3736,-2572l10670 0c1690,0 3131,990 3735,2570l35397 92526c486,1269 330,2579 -440,3696 -769,1118 -1937,1733 -3294,1733l-12515 0c-1713,0 -3170,-1021 -3757,-2629l-7869 -21577zm-79846 105003l-38633 0 0 38685c0,2202 -1797,3999 -3999,3999l-12212 0c-2203,0 -3999,-1797 -3999,-3999l0 -92527c0,-2203 1796,-3999 3999,-3999l12212 0c2202,0 3999,1796 3999,3999l0 35823 38633 0 0 -35823c0,-2203 1796,-3999 3999,-3999l12254 0c2203,0 3999,1796 3999,3999l0 92527c0,2202 -1796,3999 -3999,3999l-12254 0c-2203,0 -3999,-1797 -3999,-3999l0 -38685zm54197 -19178l0 57863c0,2202 -1796,3999 -3999,3999l-12255 0c-2203,0 -3999,-1797 -3999,-3999l0 -92527c0,-2203 1796,-3999 3999,-3999l12255 0c1392,0 2589,648 3350,1815l39347 60346 0 -58162c0,-2203 1796,-3999 3999,-3999l12147 0c2202,0 3999,1796 3999,3999l0 92527c0,2202 -1797,3999 -3999,3999l-12256 0c-1391,0 -2586,-647 -3347,-1812l-39241 -60050zm-939 -103844l20048 0 -10044 -27552 -10004 27552z"/>
   </g>
  </g>
  <polygon class="fil1" points="0,-1 500001,-1 500001,500000 0,500000 "/>
 </g>
</svg>
