<?xml version="1.0" encoding="UTF-8" standalone="no"?>
<svg
   xmlns:dc="http://purl.org/dc/elements/1.1/"
   xmlns:cc="http://creativecommons.org/ns#"
   xmlns:rdf="http://www.w3.org/1999/02/22-rdf-syntax-ns#"
   xmlns:svg="http://www.w3.org/2000/svg"
   xmlns="http://www.w3.org/2000/svg"
   xml:space="preserve"
   width="171.883"
   height="224.006"
   version="1.1"
   style="clip-rule:evenodd;fill-rule:evenodd;image-rendering:optimizeQuality;shape-rendering:geometricPrecision;text-rendering:geometricPrecision"
   viewBox="0 0 171883 224006"
   id="svg21"><metadata
   id="metadata25"><rdf:RDF><cc:Work
       rdf:about=""><dc:format>image/svg+xml</dc:format><dc:type
         rdf:resource="http://purl.org/dc/dcmitype/StillImage" /><dc:title></dc:title></cc:Work></rdf:RDF></metadata>
 <defs
   id="defs7">
  <style
   type="text/css"
   id="style2">
   <![CDATA[
    .fil1 {fill:none}
    .fil0 {fill:white}
   ]]>
  </style>
   <clipPath
   id="id0">
    <path
   d="M 0,-1 H 500001 V 500000 H 0 Z"
   id="path4" />
   </clipPath>
 </defs>
 <g
   id="Layer_x0020_1"
   transform="translate(-164058,-137995)">
  <metadata
   id="CorelCorpID_0Corel-Layer" />
  <g
   id="g10">
  </g>
  <g
   clip-path="url(#id0)"
   id="g16">
   <g
   id="g14">
    <path
   class="fil0"
   d="m 210512,179761 20581,-39611 c 706,-1358 2018,-2155 3549,-2155 h 13860 c 1454,0 2703,712 3443,1964 740,1250 762,2688 62,3962 l -31411,57120 v 33479 c 0,2203 -1796,4000 -3999,4000 h -12189 c -2203,0 -3999,-1797 -3999,-4000 v -33479 l -31410,-57120 c -701,-1274 -678,-2712 61,-3962 741,-1252 1989,-1964 3443,-1964 h 13989 c 1534,0 2849,800 3553,2162 z m 92235,34553 h -33170 l -7746,21559 c -582,1618 -2046,2647 -3764,2647 h -12580 c -1357,0 -2524,-613 -3294,-1732 -769,-1117 -926,-2427 -442,-3694 l 35333,-92527 c 603,-1580 2044,-2572 3736,-2572 h 10670 c 1690,0 3131,990 3735,2570 l 35397,92526 c 486,1269 330,2579 -440,3696 -769,1118 -1937,1733 -3294,1733 h -12515 c -1713,0 -3170,-1021 -3757,-2629 z m -79846,105003 h -38633 v 38685 c 0,2202 -1797,3999 -3999,3999 h -12212 c -2203,0 -3999,-1797 -3999,-3999 v -92527 c 0,-2203 1796,-3999 3999,-3999 h 12212 c 2202,0 3999,1796 3999,3999 v 35823 h 38633 v -35823 c 0,-2203 1796,-3999 3999,-3999 h 12254 c 2203,0 3999,1796 3999,3999 v 92527 c 0,2202 -1796,3999 -3999,3999 h -12254 c -2203,0 -3999,-1797 -3999,-3999 z m 54197,-19178 v 57863 c 0,2202 -1796,3999 -3999,3999 h -12255 c -2203,0 -3999,-1797 -3999,-3999 v -92527 c 0,-2203 1796,-3999 3999,-3999 h 12255 c 1392,0 2589,648 3350,1815 l 39347,60346 v -58162 c 0,-2203 1796,-3999 3999,-3999 h 12147 c 2202,0 3999,1796 3999,3999 v 92527 c 0,2202 -1797,3999 -3999,3999 h -12256 c -1391,0 -2586,-647 -3347,-1812 z m -939,-103844 h 20048 l -10044,-27552 z"
   id="path12" />
   </g>
  </g>
  <polygon
   class="fil1"
   points="500001,500000 0,500000 0,-1 500001,-1 "
   id="polygon18" />
 </g>
</svg>
