<?xml version="1.0" encoding="UTF-8" standalone="no"?>
<svg
   xmlns:dc="http://purl.org/dc/elements/1.1/"
   xmlns:cc="http://creativecommons.org/ns#"
   xmlns:rdf="http://www.w3.org/1999/02/22-rdf-syntax-ns#"
   xmlns:svg="http://www.w3.org/2000/svg"
   xmlns="http://www.w3.org/2000/svg"
   xml:space="preserve"
   width="350.00101"
   height="350.00198"
   version="1.1"
   style="clip-rule:evenodd;fill-rule:evenodd;image-rendering:optimizeQuality;shape-rendering:geometricPrecision;text-rendering:geometricPrecision"
   viewBox="0 0 350001.01 350001.99"
   id="svg31"><metadata
   id="metadata35"><rdf:RDF><cc:Work
       rdf:about=""><dc:format>image/svg+xml</dc:format><dc:type
         rdf:resource="http://purl.org/dc/dcmitype/StillImage" /><dc:title></dc:title></cc:Work></rdf:RDF></metadata>
 <defs
   id="defs15">
  <style
   type="text/css"
   id="style2">
   <![CDATA[
    .fil2 {fill:none}
    .fil1 {fill:#D35400}
    .fil0 {fill:#EF6C00}
   ]]>
  </style>
   <clipPath
   id="id0">
    <path
   d="M 0,-1 H 500001 V 500000 H 0 Z"
   id="path4" />
   </clipPath>
     <mask
   id="id1">
  <linearGradient
   id="id2"
   gradientUnits="userSpaceOnUse"
   x1="187147"
   y1="187706"
   x2="401910"
   y2="375287">
   <stop
   offset="0"
   style="stop-opacity:1; stop-color:white"
   id="stop7" />
   <stop
   offset="1"
   style="stop-opacity:0; stop-color:white"
   id="stop9" />
  </linearGradient>
      <rect
   style="fill:url(#id2)"
   x="163016"
   y="136953"
   width="263026"
   height="289089"
   id="rect12" />
     </mask>
 </defs>
 <g
   id="Layer_x0020_1"
   transform="translate(-75000,-74998)">
  <metadata
   id="CorelCorpID_0Corel-Layer" />
  <g
   id="g18">
  </g>
  <g
   clip-path="url(#id0)"
   id="g26">
   <g
   id="g24">
    <rect
   class="fil0"
   x="75000"
   y="74998"
   width="350001"
   height="350001"
   rx="50000"
   ry="50000"
   id="rect20" />
    <path
   class="fil1"
   d="m 425001,269839 v 105160 c 0,27501 -22500,50001 -50001,50001 H 229411 l -64030,-64030 c -98,-89 -193,-183 -282,-281 l -6,-8 c -643,-708 -1035,-1651 -1035,-2679 v -92527 c 0,-2203 1796,-3999 3999,-3999 h 12212 c 1412,0 2658,739 3369,1849 l 37973,37973 h 1290 v -35823 c 0,-1860 1281,-3431 3006,-3874 l -23845,-23844 c -1000,-729 -1653,-1909 -1653,-3237 v -33479 l -31410,-57120 c -701,-1274 -678,-2712 61,-3962 741,-1252 1989,-1964 3443,-1964 h 13989 c 1440,0 2685,703 3415,1915 l 27186,27186 14000,-26946 c 706,-1358 2018,-2155 3549,-2155 h 13860 c 782,0 1504,205 2119,590 l 32,-47 215,215 c 306,225 582,501 820,819 l 18653,18654 6743,-17659 c 603,-1580 2044,-2572 3736,-2572 h 10670 c 1162,0 2206,468 2941,1274 z m -240733,71667 120,-120 -120,-133 z"
   mask="url(#id1)"
   id="path22" />
   </g>
  </g>
  <polygon
   class="fil2"
   points="0,-1 500001,-1 500001,500000 0,500000 "
   id="polygon28" />
 </g>
</svg>
